Coordinates
version=1
nRows=8
nColumns=40
inDegrees=yes

Units are S.I. units (second, meters, Newtons, ...)
Angles are in degrees.

endheader
time	pelvis_tilt	pelvis_list	pelvis_rotation	pelvis_tx	pelvis_ty	pelvis_tz	hip_flexion_r	hip_adduction_r	hip_rotation_r	knee_angle_r	knee_angle_r_beta	ankle_angle_r	subtalar_angle_r	mtp_angle_r	hip_flexion_l	hip_adduction_l	hip_rotation_l	knee_angle_l	knee_angle_l_beta	ankle_angle_l	subtalar_angle_l	mtp_angle_l	lumbar_extension	lumbar_bending	lumbar_rotation	arm_flex_r	arm_add_r	arm_rot_r	elbow_flex_r	pro_sup_r	wrist_flex_r	wrist_dev_r	arm_flex_l	arm_add_l	arm_rot_l	elbow_flex_l	pro_sup_l	wrist_flex_l	wrist_dev_l
      0.00000000	      8.17536463	     17.16638659	     81.11790259	      0.61348149	      0.98050068	     -1.00608286	    -29.84784160	      5.38563364	      5.83347477	     15.39742135	      0.26873570	     19.69269390	      0.00000000	      0.00000000	      8.56808351	     -8.83448115	     -4.00586584	     10.26114507	      0.17909077	      7.92484764	      0.00000000	      0.00000000	    -35.55159458	      3.94287520	     10.04105881	     10.93728058	    -16.00671362	      9.30486346	    138.23034764	     86.78285144	      0.00000000	      0.00000000	      3.20671286	     -2.34510737	      5.61731793	    138.14069798	     85.65810797	      0.00000000	      0.00000000
      0.01000000	      7.77781836	     17.38384710	     80.96263728	      0.61205378	      0.97917531	     -1.00762481	    -29.84805388	      4.66810266	      5.72043700	     17.09145890	      0.29830223	     19.73304873	      0.00000000	      0.00000000	      8.67397655	     -8.30086343	     -4.68859864	     11.87688327	      0.20729072	      7.38000394	      0.00000000	      0.00000000	    -35.49050449	      3.48424627	      9.86361870	     10.67824284	    -15.67886955	      9.17247771	    138.19192713	     86.77679747	      0.00000000	      0.00000000	      3.13980725	     -2.38877188	      5.59214522	    138.13306837	     85.65776398	      0.00000000	      0.00000000
      0.02000000	      7.28626148	     17.79801809	     80.50240980	      0.61039747	      0.97811573	     -1.00975101	    -29.84765321	      3.59065143	      5.67276815	     19.43626893	      0.33922689	     19.58509172	      0.00000000	      0.00000000	      8.35068034	     -7.59814472	     -5.82381792	     13.43055053	      0.23440733	      6.60240207	      0.00000000	      0.00000000	    -35.56186013	      2.77112147	      9.82950949	     10.30229274	    -15.35893514	      9.16278769	    138.14215074	     86.75513789	      0.00000000	      0.00000000	      3.02908406	     -2.41243914	      5.57005244	    138.12577426	     85.64790423	      0.00000000	      0.00000000
      0.03000000	      6.44580131	     18.48154949	     79.45905123	      0.60955586	      0.97814108	     -1.01193321	    -29.85255918	      1.78197501	      5.89185477	     21.91081459	      0.38241586	     18.92748199	      0.00000000	      0.00000000	      7.08490795	     -6.46696424	     -7.31696632	     13.79106057	      0.24069941	      5.39975504	      0.00000000	      0.00000000	    -35.82156105	      1.36183856	     10.18262467	      9.95009729	    -15.09956542	      9.10609901	    138.07405341	     86.71338794	      0.00000000	      0.00000000	      2.94834265	     -2.43957408	      5.52204890	    138.03885998	     85.65642189	      0.00000000	      0.00000000
      0.04000000	      5.81761235	     19.11695067	     78.73561061	      0.60832869	      0.97816658	     -1.01421369	    -29.85221667	      0.38955400	      6.08606683	     24.32706753	      0.42458743	     17.64598779	      0.00000000	      0.00000000	      6.19249595	     -5.54570946	     -8.21667403	     14.78962683	      0.25812768	      4.73761467	      0.00000000	      0.00000000	    -36.02991782	      0.33832444	     10.31611579	      9.64063034	    -14.75473300	      8.96379803	    138.03541933	     86.70467964	      0.00000000	      0.00000000	      2.89584497	     -2.49141967	      5.42626614	    137.99680242	     85.66489651	      0.00000000	      0.00000000
      0.05000000	      5.42261421	     19.70744646	     78.54753159	      0.60665366	      0.97857354	     -1.01613963	    -29.84847874	     -0.37675785	      6.22329026	     26.64709754	      0.46507959	     16.33724748	      0.00000000	      0.00000000	      5.75131809	     -4.87919044	     -8.31835533	     16.51896950	      0.28831041	      4.61329513	      0.00000000	      0.00000000	    -36.30818831	     -0.18814475	     10.06763161	      9.38331346	    -14.36813622	      8.86257774	    138.03939855	     86.69378670	      0.00000000	      0.00000000	      2.91327740	     -2.64972825	      5.39949117	    138.03023070	     85.62419998	      0.00000000	      0.00000000
      0.06000000	      4.66176390	     20.59868574	     77.76096066	      0.60586949	      0.97974863	     -1.01874454	    -29.84252574	     -1.89263421	      6.62301654	     29.31308850	      0.51160991	     14.87905482	      0.00000000	      0.00000000	      4.61219847	     -3.79372467	     -9.14192302	     17.88201778	      0.31210009	      4.69542282	      0.00000000	      0.00000000	    -36.68601974	     -1.45146532	     10.12503726	      9.05537568	    -13.93418239	      8.74126260	    137.96787667	     86.70250217	      0.00000000	      0.00000000	      2.82197127	     -2.80768620	      5.28292645	    138.08301426	     85.53761135	      0.00000000	      0.00000000
      0.07000000	      3.76346035	     21.49885625	     77.47642626	      0.60438752	      0.98080110	     -1.02193983	    -29.83310373	     -3.31123022	      6.62903742	     31.98719185	      0.55828182	     13.00284264	      0.00000000	      0.00000000	      3.52327065	     -2.46679354	     -9.33348936	     19.22535106	      0.33554568	      5.27998088	      0.00000000	      0.00000000	    -36.96336392	     -2.55864165	      9.74561904	      8.67131477	    -13.42705451	      8.55935000	    137.95919998	     86.73222016	      0.00000000	      0.00000000	      2.70345235	     -3.05767040	      5.07730546	    138.18238510	     85.52985471	      0.00000000	      0.00000000
